<?xml version="1.0" encoding="UTF-8"?><svg xmlns="http://www.w3.org/2000/svg" xmlns:xlink="http://www.w3.org/1999/xlink" fill-opacity="1" color-rendering="auto" color-interpolation="auto" text-rendering="auto" stroke="black" stroke-linecap="square" width="893" stroke-miterlimit="10" shape-rendering="auto" stroke-opacity="1" fill="black" stroke-dasharray="none" font-weight="normal" stroke-width="1" height="253" font-family="'Dialog'" font-style="normal" stroke-linejoin="miter" font-size="12px" stroke-dashoffset="0" image-rendering="auto">
  <!--Generated by ySVG 2.5-->
  <defs id="genericDefs"/>
  <g>
    <defs id="defs1">
      <clipPath clipPathUnits="userSpaceOnUse" id="clipPath1">
        <path d="M0 0 L893 0 L893 253 L0 253 L0 0 Z"/>
      </clipPath>
      <clipPath clipPathUnits="userSpaceOnUse" id="clipPath2">
        <path d="M126 112 L1019 112 L1019 365 L126 365 L126 112 Z"/>
      </clipPath>
    </defs>
    <g fill="rgb(0,204,255)" text-rendering="geometricPrecision" shape-rendering="geometricPrecision" transform="matrix(1,0,0,1,-126,-112)" stroke="rgb(0,204,255)">
      <rect x="279.88" width="60" height="50" y="127.92" clip-path="url(#clipPath2)" stroke="none"/>
    </g>
    <g text-rendering="geometricPrecision" stroke-miterlimit="1.45" shape-rendering="geometricPrecision" transform="matrix(1,0,0,1,-126,-112)" stroke-linecap="butt">
      <rect fill="none" x="279.88" width="60" height="50" y="127.92" clip-path="url(#clipPath2)"/>
      <text x="283.4337" xml:space="preserve" y="157.0743" clip-path="url(#clipPath2)" font-family="sans-serif" stroke="none">Mapper1</text>
    </g>
    <g fill="rgb(0,204,255)" text-rendering="geometricPrecision" shape-rendering="geometricPrecision" transform="matrix(1,0,0,1,-126,-112)" stroke="rgb(0,204,255)">
      <rect x="279.88" width="60" height="50" y="299.44" clip-path="url(#clipPath2)" stroke="none"/>
    </g>
    <g text-rendering="geometricPrecision" stroke-miterlimit="1.45" shape-rendering="geometricPrecision" transform="matrix(1,0,0,1,-126,-112)" stroke-linecap="butt">
      <rect fill="none" x="279.88" width="60" height="50" y="299.44" clip-path="url(#clipPath2)"/>
      <text x="282.7628" xml:space="preserve" y="328.5943" clip-path="url(#clipPath2)" font-family="sans-serif" stroke="none">MapperN</text>
    </g>
    <g fill="rgb(0,204,255)" text-rendering="geometricPrecision" shape-rendering="geometricPrecision" transform="matrix(1,0,0,1,-126,-112)" stroke="rgb(0,204,255)">
      <rect x="304.88" width="10" height="10" y="233.68" clip-path="url(#clipPath2)" stroke="none"/>
      <rect x="304.88" y="233.68" clip-path="url(#clipPath2)" fill="aqua" width="1" height="10" stroke="none"/>
      <rect x="305.88" y="233.68" clip-path="url(#clipPath2)" fill="aqua" width="8" height="1" stroke="none"/>
      <rect x="305.88" y="242.68" clip-path="url(#clipPath2)" fill="rgb(0,142,178)" width="9" height="1" stroke="none"/>
      <rect x="313.88" y="233.68" clip-path="url(#clipPath2)" fill="rgb(0,142,178)" width="1" height="9" stroke="none"/>
      <rect x="509.8" y="213.68" clip-path="url(#clipPath2)" fill="rgb(255,153,0)" width="60" height="50" stroke="none"/>
    </g>
    <g text-rendering="geometricPrecision" stroke-miterlimit="1.45" shape-rendering="geometricPrecision" transform="matrix(1,0,0,1,-126,-112)" stroke-linecap="butt">
      <rect fill="none" x="509.8" width="60" height="50" y="213.68" clip-path="url(#clipPath2)"/>
      <text x="514.8713" xml:space="preserve" y="242.8343" clip-path="url(#clipPath2)" font-family="sans-serif" stroke="none">Reducer</text>
    </g>
    <g fill="white" text-rendering="geometricPrecision" shape-rendering="geometricPrecision" transform="matrix(1,0,0,1,-126,-112)" stroke="white">
      <rect x="608.32" width="110" height="50" y="213.68" clip-path="url(#clipPath2)" stroke="none"/>
      <rect x="608.32" width="1" height="50" y="213.68" clip-path="url(#clipPath2)" stroke="none"/>
      <rect x="609.32" width="108" height="1" y="213.68" clip-path="url(#clipPath2)" stroke="none"/>
      <rect x="609.32" y="262.68" clip-path="url(#clipPath2)" fill="rgb(178,178,178)" width="109" height="1" stroke="none"/>
      <rect x="717.32" y="213.68" clip-path="url(#clipPath2)" fill="rgb(178,178,178)" width="1" height="49" stroke="none"/>
    </g>
    <g font-size="8px" stroke-linecap="butt" transform="matrix(1,0,0,1,-126,-112)" text-rendering="geometricPrecision" font-family="sans-serif" shape-rendering="geometricPrecision" stroke-miterlimit="1.45">
      <text x="626.8923" xml:space="preserve" y="222.8245" clip-path="url(#clipPath2)" stroke="none">user1|user2,user3</text>
      <text x="639.4333" xml:space="preserve" y="232.137" clip-path="url(#clipPath2)" stroke="none">user2|user1</text>
      <text x="626.8923" xml:space="preserve" y="241.4495" clip-path="url(#clipPath2)" stroke="none">user3|user1,user4</text>
      <text x="639.4333" xml:space="preserve" y="250.762" clip-path="url(#clipPath2)" stroke="none">user4|user3</text>
      <text x="659.5056" xml:space="preserve" y="260.0745" clip-path="url(#clipPath2)" stroke="none">...</text>
    </g>
    <g fill="white" text-rendering="geometricPrecision" shape-rendering="geometricPrecision" transform="matrix(1,0,0,1,-126,-112)" stroke="white">
      <rect x="141.16" width="60" height="86.8" y="195.28" clip-path="url(#clipPath2)" stroke="none"/>
      <rect x="141.16" width="1" height="86.8" y="195.28" clip-path="url(#clipPath2)" stroke="none"/>
      <rect x="142.16" width="58" height="1" y="195.28" clip-path="url(#clipPath2)" stroke="none"/>
      <rect x="142.16" y="281.08" clip-path="url(#clipPath2)" fill="rgb(178,178,178)" width="59" height="1" stroke="none"/>
      <rect x="200.16" y="195.28" clip-path="url(#clipPath2)" fill="rgb(178,178,178)" width="1" height="85.8" stroke="none"/>
    </g>
    <g font-size="8px" stroke-linecap="butt" transform="matrix(1,0,0,1,-126,-112)" text-rendering="geometricPrecision" font-family="sans-serif" shape-rendering="geometricPrecision" stroke-miterlimit="1.45">
      <text x="147.3495" xml:space="preserve" y="227.4808" clip-path="url(#clipPath2)" stroke="none">user1,user2</text>
      <text x="147.3495" xml:space="preserve" y="236.7933" clip-path="url(#clipPath2)" stroke="none">user3,user1</text>
      <text x="147.3495" xml:space="preserve" y="246.1058" clip-path="url(#clipPath2)" stroke="none">user4,user3</text>
      <text x="167.3456" xml:space="preserve" y="255.4183" clip-path="url(#clipPath2)" stroke="none">...</text>
    </g>
    <g fill="rgb(153,204,255)" text-rendering="geometricPrecision" shape-rendering="geometricPrecision" transform="matrix(1,0,0,1,-126,-112)" stroke="rgb(153,204,255)">
      <rect x="775.92" width="60" height="50" y="127.92" clip-path="url(#clipPath2)" stroke="none"/>
    </g>
    <g text-rendering="geometricPrecision" stroke-miterlimit="1.45" shape-rendering="geometricPrecision" transform="matrix(1,0,0,1,-126,-112)" stroke-linecap="butt">
      <rect fill="none" x="775.92" width="60" height="50" y="127.92" clip-path="url(#clipPath2)"/>
      <text x="779.4737" xml:space="preserve" y="157.0743" clip-path="url(#clipPath2)" font-family="sans-serif" stroke="none">Mapper1</text>
    </g>
    <g fill="rgb(153,204,255)" text-rendering="geometricPrecision" shape-rendering="geometricPrecision" transform="matrix(1,0,0,1,-126,-112)" stroke="rgb(153,204,255)">
      <rect x="775.92" width="60" height="50" y="299.44" clip-path="url(#clipPath2)" stroke="none"/>
    </g>
    <g text-rendering="geometricPrecision" stroke-miterlimit="1.45" shape-rendering="geometricPrecision" transform="matrix(1,0,0,1,-126,-112)" stroke-linecap="butt">
      <rect fill="none" x="775.92" width="60" height="50" y="299.44" clip-path="url(#clipPath2)"/>
      <text x="778.8028" xml:space="preserve" y="328.5943" clip-path="url(#clipPath2)" font-family="sans-serif" stroke="none">MapperN</text>
    </g>
    <g fill="rgb(153,204,255)" text-rendering="geometricPrecision" shape-rendering="geometricPrecision" transform="matrix(1,0,0,1,-126,-112)" stroke="rgb(153,204,255)">
      <rect x="800.92" width="10" height="10" y="233.68" clip-path="url(#clipPath2)" stroke="none"/>
      <rect x="800.92" y="233.68" clip-path="url(#clipPath2)" fill="rgb(218,255,255)" width="1" height="10" stroke="none"/>
      <rect x="801.92" y="233.68" clip-path="url(#clipPath2)" fill="rgb(218,255,255)" width="8" height="1" stroke="none"/>
      <rect x="801.92" y="242.68" clip-path="url(#clipPath2)" fill="rgb(107,142,178)" width="9" height="1" stroke="none"/>
      <rect x="809.92" y="233.68" clip-path="url(#clipPath2)" fill="rgb(107,142,178)" width="1" height="9" stroke="none"/>
      <rect x="893.52" y="213.68" clip-path="url(#clipPath2)" fill="white" width="110" height="50" stroke="none"/>
      <rect x="893.52" y="213.68" clip-path="url(#clipPath2)" fill="white" width="1" height="50" stroke="none"/>
      <rect x="894.52" y="213.68" clip-path="url(#clipPath2)" fill="white" width="108" height="1" stroke="none"/>
      <rect x="894.52" y="262.68" clip-path="url(#clipPath2)" fill="rgb(178,178,178)" width="109" height="1" stroke="none"/>
      <rect x="1002.52" y="213.68" clip-path="url(#clipPath2)" fill="rgb(178,178,178)" width="1" height="49" stroke="none"/>
    </g>
    <g font-size="8px" stroke-linecap="butt" transform="matrix(1,0,0,1,-126,-112)" text-rendering="geometricPrecision" font-family="sans-serif" shape-rendering="geometricPrecision" stroke-miterlimit="1.45">
      <text x="924.6333" xml:space="preserve" y="232.137" clip-path="url(#clipPath2)" stroke="none">user1|user4</text>
      <text x="924.6333" xml:space="preserve" y="241.4495" clip-path="url(#clipPath2)" stroke="none">user4|user1</text>
      <text x="944.7056" xml:space="preserve" y="250.762" clip-path="url(#clipPath2)" stroke="none">...</text>
    </g>
    <g stroke-linecap="round" transform="matrix(1,0,0,1,-126,-112)" stroke-dashoffset="2" text-rendering="geometricPrecision" shape-rendering="geometricPrecision" stroke-dasharray="0,4" stroke-miterlimit="1.45">
      <path fill="none" d="M309.88 177.92 L309.88 233.6661" clip-path="url(#clipPath2)"/>
      <path fill="none" d="M309.88 243.6631 L309.88 299.44" clip-path="url(#clipPath2)"/>
      <path fill="none" stroke-dasharray="none" d="M339.88 164.11 L502.3044 224.6942" stroke-dashoffset="0" clip-path="url(#clipPath2)" stroke-linecap="butt"/>
      <path stroke-dasharray="none" d="M509.8 227.49 L500.304 218.6115 L501.3675 224.3447 L496.8093 227.981 Z" stroke-dashoffset="0" clip-path="url(#clipPath2)" stroke-linecap="butt" stroke="none"/>
    </g>
    <g font-size="8px" stroke-linecap="butt" transform="matrix(1,0,0,1,-126,-112)" text-rendering="geometricPrecision" font-family="sans-serif" shape-rendering="geometricPrecision" stroke-miterlimit="1.45">
      <text x="408.4064" xml:space="preserve" y="179.2019" clip-path="url(#clipPath2)" stroke="none">&lt;user_i, [user_j,user_k]&gt;</text>
    </g>
    <g stroke-linecap="round" transform="matrix(1,0,0,1,-126,-112)" stroke-dashoffset="2" text-rendering="geometricPrecision" shape-rendering="geometricPrecision" stroke-dasharray="0,4" stroke-miterlimit="1.45">
      <path fill="none" d="M314.9039 238.68 L501.8 238.68" clip-path="url(#clipPath2)"/>
      <path d="M509.8 238.68 L497.8 233.68 L500.8 238.68 L497.8 243.68 Z" clip-path="url(#clipPath2)" stroke="none"/>
    </g>
    <g font-size="8px" stroke-linecap="butt" transform="matrix(1,0,0,1,-126,-112)" text-rendering="geometricPrecision" font-family="sans-serif" shape-rendering="geometricPrecision" stroke-miterlimit="1.45">
      <text x="361.9884" xml:space="preserve" y="241.4495" clip-path="url(#clipPath2)" stroke="none">&lt;user_i, [user_j,user_k]&gt;</text>
      <path fill="none" d="M339.88 313.25 L502.3044 252.6658" clip-path="url(#clipPath2)"/>
      <path d="M509.8 249.87 L496.8093 249.379 L501.3675 253.0153 L500.304 258.7484 Z" stroke="none" clip-path="url(#clipPath2)"/>
      <text x="408.4064" xml:space="preserve" y="303.6971" clip-path="url(#clipPath2)" stroke="none">&lt;user_i, [user_j,user_k]&gt;</text>
      <path fill="none" d="M569.8 238.68 L600.2948 238.68" clip-path="url(#clipPath2)"/>
      <path d="M608.2948 238.68 L596.2948 233.68 L599.2948 238.68 L596.2948 243.68 Z" stroke="none" clip-path="url(#clipPath2)"/>
      <path fill="none" d="M201.1325 220.1503 L273.0754 175.6735" clip-path="url(#clipPath2)"/>
      <path d="M279.88 171.4667 L267.0438 173.524 L272.2248 176.1993 L272.3023 182.0298 Z" stroke="none" clip-path="url(#clipPath2)"/>
      <text x="225.854" xml:space="preserve" y="198.5695" clip-path="url(#clipPath2)" stroke="none">chunk1</text>
      <path fill="none" d="M201.1325 257.2097 L273.0754 301.6865" clip-path="url(#clipPath2)"/>
      <path d="M279.88 305.8933 L272.3023 295.3302 L272.2248 301.1606 L267.0438 303.836 Z" stroke="none" clip-path="url(#clipPath2)"/>
      <text x="225.4067" xml:space="preserve" y="284.3295" clip-path="url(#clipPath2)" stroke="none">chunkN</text>
    </g>
    <g stroke-linecap="round" transform="matrix(1,0,0,1,-126,-112)" stroke-dashoffset="2" text-rendering="geometricPrecision" shape-rendering="geometricPrecision" stroke-dasharray="0,4" stroke-miterlimit="1.45">
      <path fill="none" d="M201.1325 238.68 L296.8621 238.68" clip-path="url(#clipPath2)"/>
      <path d="M304.8621 238.68 L292.8621 233.68 L295.8621 238.68 L292.8621 243.68 Z" clip-path="url(#clipPath2)" stroke="none"/>
      <path fill="none" stroke-dasharray="none" d="M704.9233 213.6597 L769.0643 175.0851" stroke-dashoffset="0" clip-path="url(#clipPath2)" stroke-linecap="butt"/>
      <path stroke-dasharray="none" d="M775.92 170.9621 L763.0596 172.8618 L768.2074 175.6005 L768.2134 181.4314 Z" stroke-dashoffset="0" clip-path="url(#clipPath2)" stroke-linecap="butt" stroke="none"/>
      <path fill="none" stroke-dasharray="none" d="M704.9233 263.7003 L769.0643 302.2749" stroke-dashoffset="0" clip-path="url(#clipPath2)" stroke-linecap="butt"/>
      <path stroke-dasharray="none" d="M775.92 306.3979 L768.2134 295.9286 L768.2074 301.7595 L763.0596 304.4982 Z" stroke-dashoffset="0" clip-path="url(#clipPath2)" stroke-linecap="butt" stroke="none"/>
      <path fill="none" d="M805.92 177.92 L805.92 233.6661" clip-path="url(#clipPath2)"/>
      <path fill="none" d="M718.292 238.68 L792.9139 238.68" clip-path="url(#clipPath2)"/>
      <path d="M800.9139 238.68 L788.9139 233.68 L791.9139 238.68 L788.9139 243.68 Z" clip-path="url(#clipPath2)" stroke="none"/>
      <path fill="none" d="M805.92 243.6631 L805.92 299.44" clip-path="url(#clipPath2)"/>
      <path fill="none" stroke-dasharray="none" d="M835.92 170.9621 L900.0716 209.543" stroke-dashoffset="0" clip-path="url(#clipPath2)" stroke-linecap="butt"/>
      <path stroke-dasharray="none" d="M906.9273 213.666 L899.2207 203.1967 L899.2147 209.0276 L894.0669 211.7663 Z" stroke-dashoffset="0" clip-path="url(#clipPath2)" stroke-linecap="butt" stroke="none"/>
      <path fill="none" d="M810.8984 238.68 L885.5184 238.68" clip-path="url(#clipPath2)"/>
      <path d="M893.5184 238.68 L881.5184 233.68 L884.5184 238.68 L881.5184 243.68 Z" clip-path="url(#clipPath2)" stroke="none"/>
      <path fill="none" stroke-dasharray="none" d="M835.92 306.3979 L900.0716 267.817" stroke-dashoffset="0" clip-path="url(#clipPath2)" stroke-linecap="butt"/>
      <path stroke-dasharray="none" d="M906.9272 263.6939 L894.0668 265.5938 L899.2146 268.3324 L899.2206 274.1633 Z" stroke-dashoffset="0" clip-path="url(#clipPath2)" stroke-linecap="butt" stroke="none"/>
    </g>
  </g>
</svg>
