<?xml version="1.0" encoding="UTF-8"?><svg xmlns="http://www.w3.org/2000/svg" xmlns:xlink="http://www.w3.org/1999/xlink" fill-opacity="1" color-rendering="auto" color-interpolation="auto" text-rendering="auto" stroke="black" stroke-linecap="square" width="648" stroke-miterlimit="10" shape-rendering="auto" stroke-opacity="1" fill="black" stroke-dasharray="none" font-weight="normal" stroke-width="1" height="253" font-family="'Dialog'" font-style="normal" stroke-linejoin="miter" font-size="12px" stroke-dashoffset="0" image-rendering="auto">
  <!--Generated by ySVG 2.5-->
  <defs id="genericDefs"/>
  <g>
    <defs id="defs1">
      <clipPath clipPathUnits="userSpaceOnUse" id="clipPath1">
        <path d="M0 0 L648 0 L648 253 L0 253 L0 0 Z"/>
      </clipPath>
      <clipPath clipPathUnits="userSpaceOnUse" id="clipPath2">
        <path d="M126 112 L774 112 L774 365 L126 365 L126 112 Z"/>
      </clipPath>
    </defs>
    <g fill="white" text-rendering="geometricPrecision" shape-rendering="geometricPrecision" transform="translate(-126,-112)" stroke="white">
      <rect x="126" width="648" height="253" y="112" clip-path="url(#clipPath2)" stroke="none"/>
    </g>
    <g fill="rgb(0,204,255)" text-rendering="geometricPrecision" shape-rendering="geometricPrecision" transform="matrix(1,0,0,1,-126,-112)" stroke="rgb(0,204,255)">
      <rect x="279.88" width="60" height="50" y="127.92" clip-path="url(#clipPath2)" stroke="none"/>
    </g>
    <g text-rendering="geometricPrecision" stroke-miterlimit="1.45" shape-rendering="geometricPrecision" transform="matrix(1,0,0,1,-126,-112)" stroke-linecap="butt">
      <rect fill="none" x="279.88" width="60" height="50" y="127.92" clip-path="url(#clipPath2)"/>
      <text x="283.4337" xml:space="preserve" y="157.0743" clip-path="url(#clipPath2)" font-family="sans-serif" stroke="none">Mapper1</text>
    </g>
    <g fill="rgb(0,204,255)" text-rendering="geometricPrecision" shape-rendering="geometricPrecision" transform="matrix(1,0,0,1,-126,-112)" stroke="rgb(0,204,255)">
      <rect x="279.88" width="60" height="50" y="299.44" clip-path="url(#clipPath2)" stroke="none"/>
    </g>
    <g text-rendering="geometricPrecision" stroke-miterlimit="1.45" shape-rendering="geometricPrecision" transform="matrix(1,0,0,1,-126,-112)" stroke-linecap="butt">
      <rect fill="none" x="279.88" width="60" height="50" y="299.44" clip-path="url(#clipPath2)"/>
      <text x="282.7628" xml:space="preserve" y="328.5943" clip-path="url(#clipPath2)" font-family="sans-serif" stroke="none">MapperN</text>
    </g>
    <g fill="rgb(0,204,255)" text-rendering="geometricPrecision" shape-rendering="geometricPrecision" transform="matrix(1,0,0,1,-126,-112)" stroke="rgb(0,204,255)">
      <rect x="304.88" width="10" height="10" y="233.68" clip-path="url(#clipPath2)" stroke="none"/>
      <rect x="304.88" y="233.68" clip-path="url(#clipPath2)" fill="aqua" width="1" height="10" stroke="none"/>
      <rect x="305.88" y="233.68" clip-path="url(#clipPath2)" fill="aqua" width="8" height="1" stroke="none"/>
      <rect x="305.88" y="242.68" clip-path="url(#clipPath2)" fill="rgb(0,142,178)" width="9" height="1" stroke="none"/>
      <rect x="313.88" y="233.68" clip-path="url(#clipPath2)" fill="rgb(0,142,178)" width="1" height="9" stroke="none"/>
      <rect x="509.8" y="213.68" clip-path="url(#clipPath2)" fill="rgb(255,153,0)" width="60" height="50" stroke="none"/>
    </g>
    <g text-rendering="geometricPrecision" stroke-miterlimit="1.45" shape-rendering="geometricPrecision" transform="matrix(1,0,0,1,-126,-112)" stroke-linecap="butt">
      <rect fill="none" x="509.8" width="60" height="50" y="213.68" clip-path="url(#clipPath2)"/>
      <text x="514.8713" xml:space="preserve" y="242.8343" clip-path="url(#clipPath2)" font-family="sans-serif" stroke="none">Reducer</text>
    </g>
    <g fill="white" text-rendering="geometricPrecision" shape-rendering="geometricPrecision" transform="matrix(1,0,0,1,-126,-112)" stroke="white">
      <rect x="141.16" width="60" height="86.8" y="195.28" clip-path="url(#clipPath2)" stroke="none"/>
      <rect x="141.16" width="1" height="86.8" y="195.28" clip-path="url(#clipPath2)" stroke="none"/>
      <rect x="142.16" width="58" height="1" y="195.28" clip-path="url(#clipPath2)" stroke="none"/>
      <rect x="142.16" y="281.08" clip-path="url(#clipPath2)" fill="rgb(178,178,178)" width="59" height="1" stroke="none"/>
      <rect x="200.16" y="195.28" clip-path="url(#clipPath2)" fill="rgb(178,178,178)" width="1" height="85.8" stroke="none"/>
    </g>
    <g font-size="8px" stroke-linecap="butt" transform="matrix(1,0,0,1,-126,-112)" text-rendering="geometricPrecision" font-family="sans-serif" shape-rendering="geometricPrecision" stroke-miterlimit="1.45">
      <text x="147.3495" xml:space="preserve" y="227.4808" clip-path="url(#clipPath2)" stroke="none">user1,user2</text>
      <text x="147.3495" xml:space="preserve" y="236.7933" clip-path="url(#clipPath2)" stroke="none">user3,user1</text>
      <text x="147.3495" xml:space="preserve" y="246.1058" clip-path="url(#clipPath2)" stroke="none">user4,user3</text>
      <text x="167.3456" xml:space="preserve" y="255.4183" clip-path="url(#clipPath2)" stroke="none">...</text>
    </g>
    <g fill="white" text-rendering="geometricPrecision" shape-rendering="geometricPrecision" transform="matrix(1,0,0,1,-126,-112)" stroke="white">
      <rect x="648.1867" width="110" height="50" y="213.68" clip-path="url(#clipPath2)" stroke="none"/>
      <rect x="648.1867" width="1" height="50" y="213.68" clip-path="url(#clipPath2)" stroke="none"/>
      <rect x="649.1867" width="108" height="1" y="213.68" clip-path="url(#clipPath2)" stroke="none"/>
      <rect x="649.1867" y="262.68" clip-path="url(#clipPath2)" fill="rgb(178,178,178)" width="109" height="1" stroke="none"/>
      <rect x="757.1867" y="213.68" clip-path="url(#clipPath2)" fill="rgb(178,178,178)" width="1" height="49" stroke="none"/>
    </g>
    <g font-size="8px" stroke-linecap="butt" transform="matrix(1,0,0,1,-126,-112)" text-rendering="geometricPrecision" font-family="sans-serif" shape-rendering="geometricPrecision" stroke-miterlimit="1.45">
      <text x="679.2999" xml:space="preserve" y="232.137" clip-path="url(#clipPath2)" stroke="none">user1|user4</text>
      <text x="679.2999" xml:space="preserve" y="241.4495" clip-path="url(#clipPath2)" stroke="none">user4|user1</text>
      <text x="699.3722" xml:space="preserve" y="250.762" clip-path="url(#clipPath2)" stroke="none">...</text>
    </g>
    <g stroke-linecap="round" transform="matrix(1,0,0,1,-126,-112)" stroke-dashoffset="2" text-rendering="geometricPrecision" shape-rendering="geometricPrecision" stroke-dasharray="0,4" stroke-miterlimit="1.45">
      <path fill="none" d="M309.88 177.92 L309.88 233.6661" clip-path="url(#clipPath2)"/>
      <path fill="none" d="M309.88 243.6631 L309.88 299.44" clip-path="url(#clipPath2)"/>
      <path fill="none" stroke-dasharray="none" d="M339.88 164.11 L502.3044 224.6942" stroke-dashoffset="0" clip-path="url(#clipPath2)" stroke-linecap="butt"/>
      <path stroke-dasharray="none" d="M509.8 227.49 L500.304 218.6115 L501.3675 224.3447 L496.8093 227.981 Z" stroke-dashoffset="0" clip-path="url(#clipPath2)" stroke-linecap="butt" stroke="none"/>
    </g>
    <g font-size="8px" stroke-linecap="butt" transform="matrix(1,0,0,1,-126,-112)" text-rendering="geometricPrecision" font-family="sans-serif" shape-rendering="geometricPrecision" stroke-miterlimit="1.45">
      <text x="408.4064" xml:space="preserve" y="179.2019" clip-path="url(#clipPath2)" stroke="none">&lt;user_i, [user_j,user_k]&gt;</text>
    </g>
    <g stroke-linecap="round" transform="matrix(1,0,0,1,-126,-112)" stroke-dashoffset="2" text-rendering="geometricPrecision" shape-rendering="geometricPrecision" stroke-dasharray="0,4" stroke-miterlimit="1.45">
      <path fill="none" d="M314.9039 238.68 L501.8 238.68" clip-path="url(#clipPath2)"/>
      <path d="M509.8 238.68 L497.8 233.68 L500.8 238.68 L497.8 243.68 Z" clip-path="url(#clipPath2)" stroke="none"/>
    </g>
    <g font-size="8px" stroke-linecap="butt" transform="matrix(1,0,0,1,-126,-112)" text-rendering="geometricPrecision" font-family="sans-serif" shape-rendering="geometricPrecision" stroke-miterlimit="1.45">
      <text x="361.9884" xml:space="preserve" y="241.4495" clip-path="url(#clipPath2)" stroke="none">&lt;user_i, [user_j,user_k]&gt;</text>
      <path fill="none" d="M339.88 313.25 L502.3044 252.6658" clip-path="url(#clipPath2)"/>
      <path d="M509.8 249.87 L496.8093 249.379 L501.3675 253.0153 L500.304 258.7484 Z" stroke="none" clip-path="url(#clipPath2)"/>
      <text x="408.4064" xml:space="preserve" y="303.6971" clip-path="url(#clipPath2)" stroke="none">&lt;user_i, [user_j,user_k]&gt;</text>
      <path fill="none" d="M201.1325 220.1503 L273.0754 175.6735" clip-path="url(#clipPath2)"/>
      <path d="M279.88 171.4667 L267.0438 173.524 L272.2248 176.1993 L272.3023 182.0298 Z" stroke="none" clip-path="url(#clipPath2)"/>
      <text x="225.854" xml:space="preserve" y="198.5695" clip-path="url(#clipPath2)" stroke="none">chunk1</text>
      <path fill="none" d="M201.1325 257.2097 L273.0754 301.6865" clip-path="url(#clipPath2)"/>
      <path d="M279.88 305.8933 L272.3023 295.3302 L272.2248 301.1606 L267.0438 303.836 Z" stroke="none" clip-path="url(#clipPath2)"/>
      <text x="225.4067" xml:space="preserve" y="284.3295" clip-path="url(#clipPath2)" stroke="none">chunkN</text>
    </g>
    <g stroke-linecap="round" transform="matrix(1,0,0,1,-126,-112)" stroke-dashoffset="2" text-rendering="geometricPrecision" shape-rendering="geometricPrecision" stroke-dasharray="0,4" stroke-miterlimit="1.45">
      <path fill="none" d="M201.1325 238.68 L296.8621 238.68" clip-path="url(#clipPath2)"/>
      <path d="M304.8621 238.68 L292.8621 233.68 L295.8621 238.68 L292.8621 243.68 Z" clip-path="url(#clipPath2)" stroke="none"/>
      <path fill="none" stroke-dasharray="none" d="M569.8 238.68 L640.1842 238.68" stroke-dashoffset="0" clip-path="url(#clipPath2)" stroke-linecap="butt"/>
      <path stroke-dasharray="none" d="M648.1842 238.68 L636.1842 233.68 L639.1842 238.68 L636.1842 243.68 Z" stroke-dashoffset="0" clip-path="url(#clipPath2)" stroke-linecap="butt" stroke="none"/>
    </g>
  </g>
</svg>
